<svg width="801" height="71" viewBox="0 0 801 71" fill="none" xmlns="http://www.w3.org/2000/svg">
<circle cx="400.5" cy="35.5" r="35" stroke="#959595" stroke-dasharray="2 2"/>
<path d="M400.261 44.2386C399.261 44.2386 398.361 44.0398 397.56 43.642C396.759 43.2443 396.116 42.6989 395.634 42.0057C395.151 41.3125 394.886 40.5227 394.841 39.6364H396.886C396.966 40.4261 397.324 41.0795 397.96 41.5966C398.602 42.108 399.369 42.3636 400.261 42.3636C400.977 42.3636 401.614 42.196 402.17 41.8608C402.733 41.5256 403.173 41.0653 403.491 40.4801C403.815 39.8892 403.977 39.2216 403.977 38.4773C403.977 37.7159 403.81 37.0369 403.474 36.4403C403.145 35.8381 402.69 35.3636 402.111 35.017C401.531 34.6705 400.869 34.4943 400.125 34.4886C399.591 34.483 399.043 34.5653 398.48 34.7358C397.918 34.9006 397.455 35.1136 397.091 35.375L395.114 35.1364L396.17 26.5455H405.239V28.4205H397.943L397.33 33.5682H397.432C397.79 33.2841 398.239 33.0483 398.778 32.8608C399.318 32.6733 399.881 32.5795 400.466 32.5795C401.534 32.5795 402.486 32.8352 403.321 33.3466C404.162 33.8523 404.821 34.5455 405.298 35.4261C405.781 36.3068 406.023 37.3125 406.023 38.4432C406.023 39.5568 405.773 40.5511 405.273 41.4261C404.778 42.2955 404.097 42.983 403.227 43.4886C402.358 43.9886 401.369 44.2386 400.261 44.2386Z" fill="#666666"/>
<line x1="4.37114e-08" y1="41.5" x2="335" y2="41.5" stroke="#959595" stroke-dasharray="2 2"/>
<line x1="466" y1="41.5" x2="801" y2="41.5" stroke="#959595" stroke-dasharray="2 2"/>
</svg>
