<svg width="132" height="20" viewBox="0 0 132 20" fill="none" xmlns="http://www.w3.org/2000/svg">
<path fill-rule="evenodd" clip-rule="evenodd" d="M19.5662 9.06367C19.9599 8.66322 20.0988 8.0755 19.929 7.52916C19.7588 6.98283 19.3155 6.59283 18.7708 6.51006L13.9282 5.77562C13.722 5.74427 13.5438 5.60925 13.4517 5.41404L11.2867 0.834344C11.0436 0.319776 10.5502 0 10.0003 0C9.45086 0 8.95747 0.319776 8.71437 0.834344L6.54898 5.41446C6.45686 5.60967 6.27825 5.74469 6.072 5.77604L1.22939 6.51048C0.685139 6.59283 0.241407 6.98324 0.0712024 7.52958C-0.0986013 8.07592 0.0403654 8.66364 0.434038 9.06409L3.93784 12.6289C4.08722 12.781 4.1557 13.0001 4.12046 13.2141L3.29387 18.2477C3.22058 18.6908 3.33192 19.1218 3.60665 19.4616C4.03356 19.9912 4.77885 20.1526 5.37477 19.8257L9.70556 17.4489C9.88658 17.3498 10.1145 17.3507 10.2951 17.4489L14.6263 19.8257C14.8369 19.9415 15.0616 20 15.2935 20C15.7168 20 16.1181 19.8036 16.394 19.4616C16.6691 19.1218 16.7801 18.69 16.7068 18.2477L15.8798 13.2141C15.8445 12.9996 15.913 12.781 16.0624 12.6289L19.5662 9.06367ZM47.5662 9.06367C47.9599 8.66322 48.0988 8.0755 47.929 7.52916C47.7588 6.98283 47.3155 6.59283 46.7708 6.51006L41.9282 5.77562C41.722 5.74427 41.5438 5.60925 41.4517 5.41404L39.2867 0.834344C39.0436 0.319776 38.5502 0 38.0003 0C37.4509 0 36.9575 0.319776 36.7144 0.834344L34.549 5.41446C34.4569 5.60967 34.2783 5.74469 34.072 5.77604L29.2294 6.51048C28.6851 6.59283 28.2414 6.98324 28.0712 7.52958C27.9014 8.07592 28.0404 8.66364 28.434 9.06409L31.9378 12.6289C32.0872 12.781 32.1557 13.0001 32.1205 13.2141L31.2939 18.2477C31.2206 18.6908 31.3319 19.1218 31.6066 19.4616C32.0336 19.9912 32.7789 20.1526 33.3748 19.8257L37.7056 17.4489C37.8866 17.3498 38.1145 17.3507 38.2951 17.4489L42.6263 19.8257C42.8369 19.9415 43.0616 20 43.2935 20C43.7168 20 44.1181 19.8036 44.394 19.4616C44.6691 19.1218 44.7801 18.69 44.7068 18.2477L43.8798 13.2141C43.8445 12.9996 43.913 12.781 44.0624 12.6289L47.5662 9.06367ZM75.929 7.52916C76.0988 8.0755 75.9599 8.66322 75.5662 9.06367L72.0624 12.6289C71.913 12.781 71.8445 12.9996 71.8798 13.2141L72.7068 18.2477C72.7801 18.69 72.6691 19.1218 72.394 19.4616C72.1181 19.8036 71.7168 20 71.2935 20C71.0616 20 70.8369 19.9415 70.6263 19.8257L66.2951 17.4489C66.1145 17.3507 65.8866 17.3498 65.7056 17.4489L61.3748 19.8257C60.7789 20.1526 60.0336 19.9912 59.6066 19.4616C59.3319 19.1218 59.2206 18.6908 59.2939 18.2477L60.1205 13.2141C60.1557 13.0001 60.0872 12.781 59.9378 12.6289L56.434 9.06409C56.0404 8.66364 55.9014 8.07592 56.0712 7.52958C56.2414 6.98324 56.6851 6.59283 57.2294 6.51048L62.072 5.77604C62.2783 5.74469 62.4569 5.60967 62.549 5.41446L64.7144 0.834344C64.9575 0.319776 65.4509 0 66.0003 0C66.5502 0 67.0436 0.319776 67.2867 0.834344L69.4517 5.41404C69.5438 5.60925 69.722 5.74427 69.9282 5.77562L74.7708 6.51006C75.3155 6.59283 75.7588 6.98283 75.929 7.52916ZM103.566 9.06367C103.96 8.66322 104.099 8.0755 103.929 7.52916C103.759 6.98283 103.315 6.59283 102.771 6.51006L97.9282 5.77562C97.722 5.74427 97.5438 5.60925 97.4517 5.41404L95.2867 0.834344C95.0436 0.319776 94.5502 0 94.0003 0C93.4509 0 92.9575 0.319776 92.7144 0.834344L90.549 5.41446C90.4569 5.60967 90.2783 5.74469 90.072 5.77604L85.2294 6.51048C84.6851 6.59283 84.2414 6.98324 84.0712 7.52958C83.9014 8.07592 84.0404 8.66364 84.434 9.06409L87.9378 12.6289C88.0872 12.781 88.1557 13.0001 88.1205 13.2141L87.2939 18.2477C87.2206 18.6908 87.3319 19.1218 87.6067 19.4616C88.0336 19.9912 88.7789 20.1526 89.3748 19.8257L93.7056 17.4489C93.8866 17.3498 94.1145 17.3507 94.2951 17.4489L98.6263 19.8257C98.8369 19.9415 99.0616 20 99.2935 20C99.7168 20 100.118 19.8036 100.394 19.4616C100.669 19.1218 100.78 18.69 100.707 18.2477L99.8798 13.2141C99.8445 12.9996 99.913 12.781 100.062 12.6289L103.566 9.06367ZM131.929 7.52916C132.099 8.0755 131.96 8.66322 131.566 9.06367L128.062 12.6289C127.913 12.781 127.845 12.9996 127.88 13.2141L128.707 18.2477C128.78 18.69 128.669 19.1218 128.394 19.4616C128.118 19.8036 127.717 20 127.293 20C127.062 20 126.837 19.9415 126.626 19.8257L122.295 17.4489C122.114 17.3507 121.887 17.3498 121.706 17.4489L117.375 19.8257C116.779 20.1526 116.034 19.9912 115.607 19.4616C115.332 19.1218 115.221 18.6908 115.294 18.2477L116.12 13.2141C116.156 13.0001 116.087 12.781 115.938 12.6289L112.434 9.06409C112.04 8.66364 111.901 8.07592 112.071 7.52958C112.241 6.98324 112.685 6.59283 113.229 6.51048L118.072 5.77604C118.278 5.74469 118.457 5.60967 118.549 5.41446L120.714 0.834344C120.957 0.319776 121.451 0 122 0C122.55 0 123.044 0.319776 123.287 0.834344L125.452 5.41404C125.544 5.60925 125.722 5.74427 125.928 5.77562L130.771 6.51006C131.315 6.59283 131.759 6.98283 131.929 7.52916Z" fill="url(#paint0_linear_45_295)"/>
<defs>
<linearGradient id="paint0_linear_45_295" x1="0" y1="0" x2="128.336" y2="33.8806" gradientUnits="userSpaceOnUse">
<stop stop-color="#FF4070"/>
<stop offset="1" stop-color="#FF84A3"/>
</linearGradient>
</defs>
</svg>
